<svg width="36" height="38" viewBox="0 0 36 38" fill="none" xmlns="http://www.w3.org/2000/svg">
<g clip-path="url(#clip0_1_235)">
<path d="M15.7028 6.11163L3.53144 28.5C3.2805 28.9788 3.14772 29.5217 3.14631 30.0746C3.14491 30.6275 3.27493 31.1712 3.52343 31.6516C3.77194 32.132 4.13027 32.5323 4.56278 32.8127C4.99529 33.0931 5.4869 33.2439 5.9887 33.25H30.3314C30.8332 33.2439 31.3248 33.0931 31.7573 32.8127C32.1898 32.5323 32.5481 32.132 32.7966 31.6516C33.0451 31.1712 33.1752 30.6275 33.1738 30.0746C33.1723 29.5217 33.0396 28.9788 32.7886 28.5L20.6173 6.11163C20.3611 5.64629 20.0004 5.26156 19.57 4.99456C19.1396 4.72755 18.654 4.58728 18.16 4.58728C17.6661 4.58728 17.1805 4.72755 16.7501 4.99456C16.3196 5.26156 15.9589 5.64629 15.7028 6.11163V6.11163Z" stroke="#F63B82" stroke-width="4" stroke-linecap="round" stroke-linejoin="round"/>
<path d="M18.16 14.25V20.5833" stroke="#F63B82" stroke-width="4" stroke-linecap="round" stroke-linejoin="round"/>
<path d="M18.16 26.9166H18.1767" stroke="#F63B82" stroke-width="4" stroke-linecap="round" stroke-linejoin="round"/>
</g>
<defs>
<clipPath id="clip0_1_235">
<rect width="34.4878" height="38" fill="white" transform="translate(0.916138)"/>
</clipPath>
</defs>
</svg>
