<svg width="43" height="46" viewBox="0 0 43 46" fill="none" xmlns="http://www.w3.org/2000/svg">
<g clip-path="url(#clip0_1_262)">
<path d="M21.3444 1.91663V44.0833" stroke="#F63B82" stroke-width="4" stroke-linecap="round" stroke-linejoin="round"/>
<path d="M30.042 9.58337H16.9957C15.3809 9.58337 13.8324 10.2901 12.6906 11.5482C11.5488 12.8063 10.9073 14.5125 10.9073 16.2917C10.9073 18.0709 11.5488 19.7772 12.6906 21.0352C13.8324 22.2933 15.3809 23 16.9957 23H25.6933C27.308 23 28.8566 23.7068 29.9983 24.9649C31.1401 26.2229 31.7816 27.9292 31.7816 29.7084C31.7816 31.4875 31.1401 33.1938 29.9983 34.4519C28.8566 35.7099 27.308 36.4167 25.6933 36.4167H10.9073" stroke="#F63B82" stroke-width="4" stroke-linecap="round" stroke-linejoin="round"/>
</g>
<defs>
<clipPath id="clip0_1_262">
<rect width="41.7484" height="46" fill="white" transform="translate(0.470215)"/>
</clipPath>
</defs>
</svg>
